<svg width="1440" height="370" viewBox="0 0 1440 370" fill="none" xmlns="http://www.w3.org/2000/svg">
<g opacity="0.5" clip-path="url(#clip0_308_40893)">
<path opacity="0.35" d="M-48.5 -283C-48.5 -291.56 -41.5604 -298.5 -33 -298.5H1492C1500.56 -298.5 1507.5 -291.56 1507.5 -283V354C1507.5 362.56 1500.56 369.5 1492 369.5H-33C-41.5604 369.5 -48.5 362.56 -48.5 354V-283Z" fill="url(#paint0_linear_308_40893)" fill-opacity="0.16" stroke="url(#paint1_linear_308_40893)"/>
<g clip-path="url(#clip1_308_40893)">
<path d="M-25 -196C-25 -202.627 -19.6274 -208 -13 -208H1489C1495.63 -208 1501 -202.627 1501 -196V334C1501 340.627 1495.63 346 1489 346H-13C-19.6274 346 -25 340.627 -25 334V-196Z" fill="url(#paint2_linear_308_40893)" fill-opacity="0.1"/>
<g opacity="0.5" clip-path="url(#clip2_308_40893)">
<mask id="mask0_308_40893" style="mask-type:alpha" maskUnits="userSpaceOnUse" x="-50" y="24" width="679" height="334">
<path d="M-48.655 334.286H627.655" stroke="#334155" stroke-width="2.69" stroke-linecap="round" stroke-dasharray="6.38 18.38"/>
<path d="M-48.655 312.227H627.655" stroke="#334155" stroke-width="2.69" stroke-linecap="round" stroke-dasharray="6.38 18.38"/>
<path d="M-48.655 290.168H627.655" stroke="#334155" stroke-width="2.69" stroke-linecap="round" stroke-dasharray="6.38 18.38"/>
<path d="M-48.655 268.109H627.655" stroke="#334155" stroke-width="2.69" stroke-linecap="round" stroke-dasharray="6.38 18.38"/>
<path d="M-48.655 246.051H627.655" stroke="#334155" stroke-width="2.69" stroke-linecap="round" stroke-dasharray="6.38 18.38"/>
<path d="M-48.655 223.992H627.655" stroke="#334155" stroke-width="2.69" stroke-linecap="round" stroke-dasharray="6.38 18.38"/>
<path d="M-48.655 201.933H627.655" stroke="#334155" stroke-width="2.69" stroke-linecap="round" stroke-dasharray="6.38 18.38"/>
<path d="M-48.655 179.874H627.655" stroke="#334155" stroke-width="2.69" stroke-linecap="round" stroke-dasharray="6.38 18.38"/>
<path d="M-48.655 157.815H627.655" stroke="#334155" stroke-width="2.69" stroke-linecap="round" stroke-dasharray="6.38 18.38"/>
<path d="M-48.655 135.756H627.655" stroke="#334155" stroke-width="2.69" stroke-linecap="round" stroke-dasharray="6.38 18.38"/>
<path d="M-48.655 113.697H627.655" stroke="#334155" stroke-width="2.69" stroke-linecap="round" stroke-dasharray="6.38 18.38"/>
<path d="M-48.655 91.6384H627.655" stroke="#334155" stroke-width="2.69" stroke-linecap="round" stroke-dasharray="6.38 18.38"/>
<path d="M-48.655 69.5795H627.655" stroke="#334155" stroke-width="2.69" stroke-linecap="round" stroke-dasharray="6.38 18.38"/>
<path d="M-48.655 47.5206H627.655" stroke="#334155" stroke-width="2.69" stroke-linecap="round" stroke-dasharray="6.38 18.38"/>
<path d="M-48.655 25.4618H627.655" stroke="#334155" stroke-width="2.69" stroke-linecap="round" stroke-dasharray="6.38 18.38"/>
</mask>
<g mask="url(#mask0_308_40893)">
<rect width="687" height="335" transform="matrix(1 0 0 -1 -24 341.117)" fill="url(#paint3_linear_308_40893)"/>
</g>
</g>
<g opacity="0.5" clip-path="url(#clip3_308_40893)">
<mask id="mask1_308_40893" style="mask-type:alpha" maskUnits="userSpaceOnUse" x="782" y="24" width="679" height="334">
<path d="M1459.66 334.286H783.345" stroke="#334155" stroke-width="2.69" stroke-linecap="round" stroke-dasharray="6.38 18.38"/>
<path d="M1459.66 312.227H783.345" stroke="#334155" stroke-width="2.69" stroke-linecap="round" stroke-dasharray="6.38 18.38"/>
<path d="M1459.66 290.168H783.345" stroke="#334155" stroke-width="2.69" stroke-linecap="round" stroke-dasharray="6.38 18.38"/>
<path d="M1459.66 268.109H783.345" stroke="#334155" stroke-width="2.69" stroke-linecap="round" stroke-dasharray="6.38 18.38"/>
<path d="M1459.66 246.051H783.345" stroke="#334155" stroke-width="2.69" stroke-linecap="round" stroke-dasharray="6.38 18.38"/>
<path d="M1459.66 223.992H783.345" stroke="#334155" stroke-width="2.69" stroke-linecap="round" stroke-dasharray="6.38 18.38"/>
<path d="M1459.66 201.933H783.345" stroke="#334155" stroke-width="2.69" stroke-linecap="round" stroke-dasharray="6.38 18.38"/>
<path d="M1459.66 179.874H783.345" stroke="#334155" stroke-width="2.69" stroke-linecap="round" stroke-dasharray="6.38 18.38"/>
<path d="M1459.66 157.815H783.345" stroke="#334155" stroke-width="2.69" stroke-linecap="round" stroke-dasharray="6.38 18.38"/>
<path d="M1459.66 135.756H783.345" stroke="#334155" stroke-width="2.69" stroke-linecap="round" stroke-dasharray="6.38 18.38"/>
<path d="M1459.66 113.697H783.345" stroke="#334155" stroke-width="2.69" stroke-linecap="round" stroke-dasharray="6.38 18.38"/>
<path d="M1459.66 91.6384H783.345" stroke="#334155" stroke-width="2.69" stroke-linecap="round" stroke-dasharray="6.38 18.38"/>
<path d="M1459.66 69.5795H783.345" stroke="#334155" stroke-width="2.69" stroke-linecap="round" stroke-dasharray="6.38 18.38"/>
<path d="M1459.66 47.5206H783.345" stroke="#334155" stroke-width="2.69" stroke-linecap="round" stroke-dasharray="6.38 18.38"/>
<path d="M1459.66 25.4618H783.345" stroke="#334155" stroke-width="2.69" stroke-linecap="round" stroke-dasharray="6.38 18.38"/>
</mask>
<g mask="url(#mask1_308_40893)">
<rect x="1435" y="341.117" width="687" height="335" transform="rotate(180 1435 341.117)" fill="url(#paint4_linear_308_40893)"/>
</g>
</g>
</g>
<path d="M-24.5 -196C-24.5 -202.351 -19.3513 -207.5 -13 -207.5H1489C1495.35 -207.5 1500.5 -202.351 1500.5 -196V334C1500.5 340.351 1495.35 345.5 1489 345.5H-13C-19.3513 345.5 -24.5 340.351 -24.5 334V-196Z" stroke="url(#paint5_linear_308_40893)" stroke-opacity="0.5"/>
</g>
<defs>
<linearGradient id="paint0_linear_308_40893" x1="613.408" y1="369.139" x2="617.671" y2="79.2126" gradientUnits="userSpaceOnUse">
<stop stop-color="#64748B"/>
<stop offset="1" stop-color="#64748B" stop-opacity="0"/>
</linearGradient>
<linearGradient id="paint1_linear_308_40893" x1="613.408" y1="369.139" x2="615.932" y2="71.0364" gradientUnits="userSpaceOnUse">
<stop stop-color="#64748B"/>
<stop offset="1" stop-color="#64748B" stop-opacity="0"/>
</linearGradient>
<linearGradient id="paint2_linear_308_40893" x1="624.219" y1="345.287" x2="627.202" y2="105.184" gradientUnits="userSpaceOnUse">
<stop stop-color="#64748B"/>
<stop offset="1" stop-color="#64748B" stop-opacity="0"/>
</linearGradient>
<linearGradient id="paint3_linear_308_40893" x1="343.5" y1="0" x2="408.914" y2="137.945" gradientUnits="userSpaceOnUse">
<stop stop-color="#64748B"/>
<stop offset="1" stop-color="#64748B" stop-opacity="0"/>
</linearGradient>
<linearGradient id="paint4_linear_308_40893" x1="1778.5" y1="341.117" x2="1843.91" y2="479.062" gradientUnits="userSpaceOnUse">
<stop stop-color="#64748B"/>
<stop offset="1" stop-color="#64748B" stop-opacity="0"/>
</linearGradient>
<linearGradient id="paint5_linear_308_40893" x1="624.219" y1="345.287" x2="627.909" y2="-107.54" gradientUnits="userSpaceOnUse">
<stop stop-color="#64748B"/>
<stop offset="1" stop-color="#64748B" stop-opacity="0"/>
</linearGradient>
<clipPath id="clip0_308_40893">
<rect width="1440" height="370" fill="white"/>
</clipPath>
<clipPath id="clip1_308_40893">
<path d="M-25 -196C-25 -202.627 -19.6274 -208 -13 -208H1489C1495.63 -208 1501 -202.627 1501 -196V334C1501 340.627 1495.63 346 1489 346H-13C-19.6274 346 -25 340.627 -25 334V-196Z" fill="white"/>
</clipPath>
<clipPath id="clip2_308_40893">
<rect width="779" height="331" fill="white" transform="matrix(1 0 0 -1 -50 355)"/>
</clipPath>
<clipPath id="clip3_308_40893">
<rect width="779" height="331" fill="white" transform="matrix(-1 0 0 -1 1461 355)"/>
</clipPath>
</defs>
</svg>
