<svg width="1216" height="506" viewBox="0 0 1216 506" fill="none" xmlns="http://www.w3.org/2000/svg">
<g clip-path="url(#clip0_56_23177)">
<path opacity="0.35" d="M0.5 653C0.5 661.56 7.43959 668.5 16 668.5H1200C1208.56 668.5 1215.5 661.56 1215.5 653V16C1215.5 7.43958 1208.56 0.5 1200 0.5H16C7.4396 0.5 0.5 7.43958 0.5 16V653Z" fill="url(#paint0_linear_56_23177)" fill-opacity="0.16" stroke="url(#paint1_linear_56_23177)"/>
<g clip-path="url(#clip1_56_23177)">
<path d="M24 566C24 572.627 29.3726 578 36 578H1180C1186.63 578 1192 572.627 1192 566V36C1192 29.3726 1186.63 24 1180 24H36C29.3726 24 24 29.3726 24 36V566Z" fill="url(#paint2_linear_56_23177)" fill-opacity="0.16"/>
<g opacity="0.5" clip-path="url(#clip2_56_23177)">
<mask id="mask0_56_23177" style="mask-type:alpha" maskUnits="userSpaceOnUse" x="-1" y="12" width="679" height="334">
<line x1="0.345" y1="35.8308" x2="676.655" y2="35.8308" stroke="#1E293B" stroke-width="2.69" stroke-linecap="round" stroke-dasharray="6.38 18.38"/>
<line x1="0.345" y1="57.8894" x2="676.655" y2="57.8894" stroke="#1E293B" stroke-width="2.69" stroke-linecap="round" stroke-dasharray="6.38 18.38"/>
<line x1="0.345" y1="79.948" x2="676.655" y2="79.948" stroke="#1E293B" stroke-width="2.69" stroke-linecap="round" stroke-dasharray="6.38 18.38"/>
<line x1="0.345" y1="102.007" x2="676.655" y2="102.007" stroke="#1E293B" stroke-width="2.69" stroke-linecap="round" stroke-dasharray="6.38 18.38"/>
<line x1="0.345" y1="124.065" x2="676.655" y2="124.065" stroke="#1E293B" stroke-width="2.69" stroke-linecap="round" stroke-dasharray="6.38 18.38"/>
<line x1="0.345" y1="146.124" x2="676.655" y2="146.124" stroke="#1E293B" stroke-width="2.69" stroke-linecap="round" stroke-dasharray="6.38 18.38"/>
<line x1="0.345" y1="168.186" x2="676.655" y2="168.186" stroke="#1E293B" stroke-width="2.69" stroke-linecap="round" stroke-dasharray="6.38 18.38"/>
<line x1="0.345" y1="190.245" x2="676.655" y2="190.245" stroke="#1E293B" stroke-width="2.69" stroke-linecap="round" stroke-dasharray="6.38 18.38"/>
<line x1="0.345" y1="212.303" x2="676.655" y2="212.303" stroke="#1E293B" stroke-width="2.69" stroke-linecap="round" stroke-dasharray="6.38 18.38"/>
<line x1="0.345" y1="234.362" x2="676.655" y2="234.362" stroke="#1E293B" stroke-width="2.69" stroke-linecap="round" stroke-dasharray="6.38 18.38"/>
<line x1="0.345" y1="256.421" x2="676.655" y2="256.421" stroke="#1E293B" stroke-width="2.69" stroke-linecap="round" stroke-dasharray="6.38 18.38"/>
<line x1="0.345" y1="278.479" x2="676.655" y2="278.479" stroke="#1E293B" stroke-width="2.69" stroke-linecap="round" stroke-dasharray="6.38 18.38"/>
<line x1="0.345" y1="300.538" x2="676.655" y2="300.538" stroke="#1E293B" stroke-width="2.69" stroke-linecap="round" stroke-dasharray="6.38 18.38"/>
<line x1="0.345" y1="322.596" x2="676.655" y2="322.596" stroke="#1E293B" stroke-width="2.69" stroke-linecap="round" stroke-dasharray="6.38 18.38"/>
<line x1="0.345" y1="344.655" x2="676.655" y2="344.655" stroke="#1E293B" stroke-width="2.69" stroke-linecap="round" stroke-dasharray="6.38 18.38"/>
</mask>
<g mask="url(#mask0_56_23177)">
<rect x="26.5737" y="28.9023" width="685.893" height="335.019" fill="url(#paint3_linear_56_23177)"/>
</g>
</g>
<g opacity="0.5" clip-path="url(#clip3_56_23177)">
<mask id="mask1_56_23177" style="mask-type:alpha" maskUnits="userSpaceOnUse" x="588" y="12" width="679" height="334">
<line x1="1.345" y1="-1.345" x2="677.655" y2="-1.345" transform="matrix(-1 0 0 1 1267 37.0586)" stroke="#1E293B" stroke-width="2.69" stroke-linecap="round" stroke-dasharray="6.38 18.38"/>
<line x1="1.345" y1="-1.345" x2="677.655" y2="-1.345" transform="matrix(-1 0 0 1 1267 59.1172)" stroke="#1E293B" stroke-width="2.69" stroke-linecap="round" stroke-dasharray="6.38 18.38"/>
<line x1="1.345" y1="-1.345" x2="677.655" y2="-1.345" transform="matrix(-1 0 0 1 1267 81.1758)" stroke="#1E293B" stroke-width="2.69" stroke-linecap="round" stroke-dasharray="6.38 18.38"/>
<line x1="1.345" y1="-1.345" x2="677.655" y2="-1.345" transform="matrix(-1 0 0 1 1267 103.234)" stroke="#1E293B" stroke-width="2.69" stroke-linecap="round" stroke-dasharray="6.38 18.38"/>
<line x1="1.345" y1="-1.345" x2="677.655" y2="-1.345" transform="matrix(-1 0 0 1 1267 125.293)" stroke="#1E293B" stroke-width="2.69" stroke-linecap="round" stroke-dasharray="6.38 18.38"/>
<line x1="1.345" y1="-1.345" x2="677.655" y2="-1.345" transform="matrix(-1 0 0 1 1267 147.352)" stroke="#1E293B" stroke-width="2.69" stroke-linecap="round" stroke-dasharray="6.38 18.38"/>
<line x1="1.345" y1="-1.345" x2="677.655" y2="-1.345" transform="matrix(-1 0 0 1 1267 169.414)" stroke="#1E293B" stroke-width="2.69" stroke-linecap="round" stroke-dasharray="6.38 18.38"/>
<line x1="1.345" y1="-1.345" x2="677.655" y2="-1.345" transform="matrix(-1 0 0 1 1267 191.473)" stroke="#1E293B" stroke-width="2.69" stroke-linecap="round" stroke-dasharray="6.38 18.38"/>
<line x1="1.345" y1="-1.345" x2="677.655" y2="-1.345" transform="matrix(-1 0 0 1 1267 213.531)" stroke="#1E293B" stroke-width="2.69" stroke-linecap="round" stroke-dasharray="6.38 18.38"/>
<line x1="1.345" y1="-1.345" x2="677.655" y2="-1.345" transform="matrix(-1 0 0 1 1267 235.59)" stroke="#1E293B" stroke-width="2.69" stroke-linecap="round" stroke-dasharray="6.38 18.38"/>
<line x1="1.345" y1="-1.345" x2="677.655" y2="-1.345" transform="matrix(-1 0 0 1 1267 257.648)" stroke="#1E293B" stroke-width="2.69" stroke-linecap="round" stroke-dasharray="6.38 18.38"/>
<line x1="1.345" y1="-1.345" x2="677.655" y2="-1.345" transform="matrix(-1 0 0 1 1267 279.707)" stroke="#1E293B" stroke-width="2.69" stroke-linecap="round" stroke-dasharray="6.38 18.38"/>
<line x1="1.345" y1="-1.345" x2="677.655" y2="-1.345" transform="matrix(-1 0 0 1 1267 301.766)" stroke="#1E293B" stroke-width="2.69" stroke-linecap="round" stroke-dasharray="6.38 18.38"/>
<line x1="1.345" y1="-1.345" x2="677.655" y2="-1.345" transform="matrix(-1 0 0 1 1267 323.824)" stroke="#1E293B" stroke-width="2.69" stroke-linecap="round" stroke-dasharray="6.38 18.38"/>
<line x1="1.345" y1="-1.345" x2="677.655" y2="-1.345" transform="matrix(-1 0 0 1 1267 345.883)" stroke="#1E293B" stroke-width="2.69" stroke-linecap="round" stroke-dasharray="6.38 18.38"/>
</mask>
<g mask="url(#mask1_56_23177)">
<rect width="685.893" height="335.019" transform="matrix(-1 0 0 1 1239.43 28.7852)" fill="url(#paint4_linear_56_23177)"/>
</g>
</g>
</g>
<path d="M24.5 566C24.5 572.351 29.6487 577.5 36 577.5H1180C1186.35 577.5 1191.5 572.351 1191.5 566V36C1191.5 29.6487 1186.35 24.5 1180 24.5H36C29.6487 24.5 24.5 29.6487 24.5 36V566Z" stroke="url(#paint5_linear_56_23177)"/>
</g>
<defs>
<linearGradient id="paint0_linear_56_23177" x1="517.333" y1="0.860978" x2="522.791" y2="290.747" gradientUnits="userSpaceOnUse">
<stop stop-color="#64748B"/>
<stop offset="1" stop-color="#64748B" stop-opacity="0"/>
</linearGradient>
<linearGradient id="paint1_linear_56_23177" x1="517.333" y1="0.861039" x2="520.565" y2="298.95" gradientUnits="userSpaceOnUse">
<stop stop-color="#64748B"/>
<stop offset="1" stop-color="#64748B" stop-opacity="0"/>
</linearGradient>
<linearGradient id="paint2_linear_56_23177" x1="520.912" y1="24.713" x2="524.809" y2="264.79" gradientUnits="userSpaceOnUse">
<stop stop-color="#64748B"/>
<stop offset="1" stop-color="#64748B" stop-opacity="0"/>
</linearGradient>
<linearGradient id="paint3_linear_56_23177" x1="369.52" y1="28.9023" x2="435.008" y2="166.77" gradientUnits="userSpaceOnUse">
<stop stop-color="#64748B"/>
<stop offset="1" stop-color="#64748B" stop-opacity="0"/>
</linearGradient>
<linearGradient id="paint4_linear_56_23177" x1="342.947" y1="0" x2="408.434" y2="137.868" gradientUnits="userSpaceOnUse">
<stop stop-color="#64748B"/>
<stop offset="1" stop-color="#64748B" stop-opacity="0"/>
</linearGradient>
<linearGradient id="paint5_linear_56_23177" x1="520.912" y1="24.713" x2="523.22" y2="271.568" gradientUnits="userSpaceOnUse">
<stop stop-color="#64748B"/>
<stop offset="1" stop-color="#64748B" stop-opacity="0"/>
</linearGradient>
<clipPath id="clip0_56_23177">
<rect width="1216" height="506" fill="white" transform="matrix(1 0 0 -1 0 506)"/>
</clipPath>
<clipPath id="clip1_56_23177">
<path d="M24 566C24 572.627 29.3726 578 36 578H1180C1186.63 578 1192 572.627 1192 566V36C1192 29.3726 1186.63 24 1180 24H36C29.3726 24 24 29.3726 24 36V566Z" fill="white"/>
</clipPath>
<clipPath id="clip2_56_23177">
<rect width="679" height="330.883" fill="white" transform="translate(-1 15.1172)"/>
</clipPath>
<clipPath id="clip3_56_23177">
<rect width="609" height="331" fill="white" transform="matrix(-1 0 0 1 1267 15)"/>
</clipPath>
</defs>
</svg>
