<svg xmlns="http://www.w3.org/2000/svg" width="800" height="220" viewBox="0 0 800 220" role="img" aria-label="فارسی">
  <rect width="800" height="220" rx="16" fill="#f4f6fb"/>
  <g transform="translate(310,40)">
    <clipPath id="faClip"><rect width="180" height="120" rx="8"/></clipPath>
    <g clip-path="url(#faClip)">
      <rect x="0" y="0" width="180" height="40" fill="#239f40"/>
      <rect x="0" y="40" width="180" height="40" fill="#ffffff"/>
      <rect x="0" y="80" width="180" height="40" fill="#da0000"/>
      <g fill="none" stroke="#da0000" stroke-width="3.2" stroke-linecap="round" transform="translate(90,60)">
        <path d="M0,-13 L0,9"/>
        <path d="M-9,-7 a9,9 0 0 0 0,14"/>
        <path d="M9,-7 a9,9 0 0 1 0,14"/>
        <path d="M-4.5,-10 a4.5,4.5 0 0 0 0,9"/>
        <path d="M4.5,-10 a4.5,4.5 0 0 1 0,9"/>
      </g>
    </g>
    <rect width="180" height="120" rx="8" fill="none" stroke="#d9dee8"/>
  </g>
  <text x="400" y="192" text-anchor="middle" font-family="sans-serif" font-size="22" fill="#3a4252" direction="rtl">فارسی</text>
</svg>
