<svg width="1300" height="200" viewBox="0 0 1300 200" fill="none" xmlns="http://www.w3.org/2000/svg">
<path d="M377 200C379.16 200 381 198.209 381 196V103C381 103 386 112 395 127L434 194C435.785 197.74 439.744 200 443 200H470V50H443C441.202 50 439 51.4941 439 54V148L421 116L385 55C383.248 51.8912 379.479 50 376 50H350V200H377Z" fill="black" style="fill:black;fill-opacity:1;"/>
<path d="M726 92H739C742.314 92 745 89.3137 745 86V60H773V92H800V116H773V159C773 169.5 778.057 174 787 174H800V200H783C759.948 200 745 185.071 745 160V116H726V92Z" fill="black" style="fill:black;fill-opacity:1;"/>
<path d="M591 92V154C591 168.004 585.742 179.809 578 188C570.258 196.191 559.566 200 545 200C530.434 200 518.742 196.191 511 188C503.389 179.809 498 168.004 498 154V92H514C517.412 92 520.769 92.622 523 95C525.231 97.2459 526 98.5652 526 102V154C526 162.059 526.457 167.037 530 171C533.543 174.831 537.914 176 545 176C552.217 176 555.457 174.831 559 171C562.543 167.037 563 162.059 563 154V102C563 98.5652 563.769 96.378 566 94C567.96 91.9107 570.028 91.9599 573 92C573.411 92.0055 574.586 92 575 92H591Z" fill="black" style="fill:black;fill-opacity:1;"/>
<path d="M676 144L710 92H684C680.723 92 677.812 93.1758 676 96L660 120L645 97C643.188 94.1758 639.277 92 636 92H611L645 143L608 200H634C637.25 200 640.182 196.787 642 194L660 167L679 195C680.818 197.787 683.75 200 687 200H713L676 144Z" fill="black" style="fill:black;fill-opacity:1;"/>
<path d="M168 200H279C282.542 200 285.932 198.756 289 197C292.068 195.244 295.23 193.041 297 190C298.77 186.959 300.002 183.51 300 179.999C299.998 176.488 298.773 173.04 297 170.001L222 41C220.23 37.96 218.067 35.7552 215 34C211.933 32.2448 207.542 31 204 31C200.458 31 197.067 32.2448 194 34C190.933 35.7552 188.77 37.96 187 41L168 74L130 9.99764C128.228 6.95784 126.068 3.75491 123 2C119.932 0.245087 116.542 0 113 0C109.458 0 106.068 0.245087 103 2C99.9323 3.75491 96.7717 6.95784 95 9.99764L2 170.001C0.226979 173.04 0.00154312 176.488 1.90993e-06 179.999C-0.0015393 183.51 0.229648 186.959 2 190C3.77035 193.04 6.93245 195.244 10 197C13.0675 198.756 16.4578 200 20 200H90C117.737 200 137.925 187.558 152 164L186 105L204 74L259 168H186L168 200ZM89 168H40L113 42L150 105L125.491 147.725C116.144 163.01 105.488 168 89 168Z" fill="#00DC82" style="fill:#00DC82;fill:color(display-p3 0.0000 0.8627 0.5098);fill-opacity:1;"/>
<path d="M958 60.0001H938C933.524 60.0001 929.926 59.9395 927 63C924.074 65.8905 925 67.5792 925 72V141C925 151.372 923.648 156.899 919 162C914.352 166.931 908.468 169 899 169C889.705 169 882.648 166.931 878 162C873.352 156.899 873 151.372 873 141V72.0001C873 67.5793 872.926 65.8906 870 63.0001C867.074 59.9396 863.476 60.0001 859 60.0001H840V141C840 159.023 845.016 173.458 855 184C865.156 194.542 879.893 200 899 200C918.107 200 932.844 194.542 943 184C953.156 173.458 958 159.023 958 141V60.0001Z" fill="#00DC82" style="fill:#00DC82;fill:color(display-p3 0.0000 0.8627 0.5098);fill-opacity:1;"/>
<path fill-rule="evenodd" clip-rule="evenodd" d="M1000 60.0233L1020 60V77L1020 128V156.007L1020 181L1020 189.004C1020 192.938 1019.98 194.429 1017 197.001C1014.02 199.725 1009.56 200 1005 200H986.001V181.006L986 130.012V70.0215C986 66.1576 986.016 64.5494 989 62.023C991.819 59.6358 995.437 60.0233 1000 60.0233Z" fill="#00DC82" style="fill:#00DC82;fill:color(display-p3 0.0000 0.8627 0.5098);fill-opacity:1;"/>
<rect x="1086.67" y="60.2223" width="213.333" height="139.778" rx="27" fill="#EFFDF5" style="fill:#EFFDF5;fill:color(display-p3 0.9373 0.9922 0.9608);fill-opacity:1;"/>
<rect x="1090.14" y="63.6945" width="206.389" height="132.833" rx="23.5278" stroke="#00C16A" stroke-opacity="0.25" style="stroke:#00C16A;stroke:color(display-p3 0.0000 0.7569 0.4157);stroke-opacity:0.25;" stroke-width="6.94444"/>
<path d="M1233 159.111C1229.06 159.111 1225.5 158.195 1222.33 156.361C1219.22 154.528 1216.75 151.972 1214.92 148.695C1213.14 145.361 1212.25 141.528 1212.25 137.195C1212.25 132.75 1213.17 128.889 1215 125.611C1216.83 122.278 1219.33 119.695 1222.5 117.861C1225.67 116.028 1229.22 115.111 1233.17 115.111C1237.17 115.111 1240.72 116.028 1243.83 117.861C1246.95 119.695 1249.39 122.25 1251.17 125.528C1253 128.806 1253.92 132.667 1253.92 137.111C1253.92 141.556 1253 145.417 1251.17 148.695C1249.39 151.972 1246.92 154.528 1243.75 156.361C1240.58 158.195 1237 159.111 1233 159.111ZM1233 151.945C1235.28 151.945 1237.33 151.389 1239.17 150.278C1241.06 149.167 1242.56 147.528 1243.67 145.361C1244.83 143.139 1245.42 140.389 1245.42 137.111C1245.42 133.833 1244.86 131.111 1243.75 128.945C1242.64 126.722 1241.14 125.056 1239.25 123.945C1237.42 122.833 1235.39 122.278 1233.17 122.278C1230.95 122.278 1228.89 122.833 1227 123.945C1225.11 125.056 1223.58 126.722 1222.42 128.945C1221.31 131.111 1220.75 133.833 1220.75 137.111C1220.75 140.389 1221.31 143.139 1222.42 145.361C1223.58 147.528 1225.08 149.167 1226.92 150.278C1228.81 151.389 1230.83 151.945 1233 151.945Z" fill="#00C16A" style="fill:#00C16A;fill:color(display-p3 0.0000 0.7569 0.4157);fill-opacity:1;"/>
<path d="M1183.24 158.111V116.111H1190.74L1191.49 124.028C1192.43 122.139 1193.65 120.556 1195.15 119.278C1196.65 117.945 1198.4 116.917 1200.4 116.195C1202.46 115.472 1204.79 115.111 1207.4 115.111V123.945H1204.4C1202.68 123.945 1201.04 124.167 1199.49 124.611C1197.93 125 1196.54 125.695 1195.32 126.695C1194.15 127.695 1193.24 129.056 1192.57 130.778C1191.9 132.5 1191.57 134.639 1191.57 137.195V158.111H1183.24Z" fill="#00C16A" style="fill:#00C16A;fill:color(display-p3 0.0000 0.7569 0.4157);fill-opacity:1;"/>
<path d="M1134.42 158.111V99.7778H1154.33C1159 99.7778 1162.83 100.556 1165.83 102.111C1168.83 103.667 1171.06 105.75 1172.5 108.361C1173.94 110.972 1174.67 113.945 1174.67 117.278C1174.67 120.444 1173.94 123.361 1172.5 126.028C1171.11 128.639 1168.92 130.75 1165.92 132.361C1162.92 133.917 1159.06 134.694 1154.33 134.694H1142.75V158.111H1134.42ZM1142.75 127.778H1154C1158.39 127.778 1161.5 126.833 1163.33 124.944C1165.22 123 1166.17 120.444 1166.17 117.278C1166.17 113.889 1165.22 111.278 1163.33 109.444C1161.5 107.611 1158.39 106.694 1154 106.694H1142.75V127.778Z" fill="#00C16A" style="fill:#00C16A;fill:color(display-p3 0.0000 0.7569 0.4157);fill-opacity:1;"/>
</svg>
